<svg id="Layer_1" data-name="Layer 1" xmlns="http://www.w3.org/2000/svg" viewBox="0 0 176.99 176.15">
  <circle style="fill:#fff;" cx="88.49" cy="88.07" r="87.19" />
  <path style="fill:none;"
    d="M59.09,110.21a9.52,9.52,0,1,0,19,0v-9.53H68.61A9.53,9.53,0,0,0,59.09,110.21Z" />
  <rect style="fill:#50D59B;" x="103.53" y="75.29" width="25.39" height="25.39" />
  <path style="fill:#50D59B;"
    d="M78.13,110.21a9.52,9.52,0,1,1-9.52-9.53h9.52V75.29H68.61a34.92,34.92,0,1,0,34.91,34.92v-9.53H78.13Z" />
  <path style="fill:#50D59B;"
    d="M113.05,62.6h28.56V37.2H113.05A35,35,0,0,0,78.13,72.12v3.17h25.39V72.12A9.53,9.53,0,0,1,113.05,62.6Z" />
  <polygon style="fill:#fff;"
    points="78.13 100.68 103.52 100.68 103.53 100.68 103.53 75.29 103.52 75.29 78.13 75.29 78.13 100.68" />
</svg>
